<svg xmlns="http://www.w3.org/2000/svg" width="413.388" height="142.586" viewBox="0 0 109.376 37.726"><defs><clipPath clipPathUnits="userSpaceOnUse" id="a"><path transform="scale(1 -1)" fill="#fff" stroke-width="7.5" d="M61.172-5938.814h5811.182v5798.818H61.172z"/></clipPath></defs><g clip-path="url(#a)" transform="translate(38.177 38.636) scale(.0065)"><path d="M1123.876 1039.619h533.318c-5.479 193.691-46.017 381.636-118.673 555.815-134.087-38.934-273.119-60.361-414.645-64.148zm463.691 665.001c130.434 44.992 255.3 106.556 370.99 185.716l29.088 22.274c-212.801 210.708-498.26 347.824-814.946 370.588l-23.075-18.755c187.722-155.425 336.153-346.488 437.943-559.824zm-463.691 464.582V1620.38c128.786 3.653 255.3 22.853 377.448 57.154-90.297 185.317-217.88 352.458-377.448 491.668zm514.787-1762.91c139.432-50.428 272.629-118.852 395.801-206.655l38.667-28.955c177.12 213.158 286.84 484.05 296.907 779.798h-623.75c-5.033-188.79-41.918-372.28-107.625-544.188zM200.056 1890.336c115.69-79.16 240.6-140.68 370.99-185.717 101.79 213.292 250.22 404.355 437.987 559.824l-23.075 18.755c-317.399-22.808-603.48-160.504-816.46-371.97zm834.725 278.866c-159.612-139.21-287.15-306.396-377.448-491.623 122.149-34.301 248.663-53.546 377.448-57.154zM412.368 950.525h-623.794c10.112-295.75 119.788-566.596 296.907-779.799l37.865 28.288c123.619 88.07 257.082 156.717 396.737 207.233-65.84 172.041-102.68 355.531-107.715 544.278zm122.46 672.439c-135.29 47.398-264.832 111.59-385.065 193.825l-41.786 28.6c-190.171-216.99-308.89-497.815-319.403-805.77h623.794c5.39 203.135 47.131 400.39 122.46 583.345zm-33.365-583.345h533.318v491.667c-141.615 3.787-280.691 25.214-414.69 64.059-72.656-174.135-113.194-362.035-118.628-555.726zm503.115-1309.954C807.724-105.733 655.284 97.58 554.162 323.969 420.877 276.125 293.516 210.908 175.867 127.07l-30.693-22.942c212.669-222.87 503.829-369.92 828.8-396.291zm30.203 773.695v447.165H501.463c5.033-179.036 40.315-352.992 103.037-515.857 138.676 41.786 283.008 64.772 430.281 68.692zm947.118-375.666c-117.204 83.526-244.208 148.565-377.27 196.275-101.211-226.924-253.83-430.415-450.506-594.438l30.515-21.694c324.972 26.372 616.177 173.377 828.845 396.247zm28.911 1690.52c-121.168-82.946-251.38-147.495-387.07-195.116 75.373-183 117.114-380.3 122.549-583.48h623.794c-10.558 308.936-129.944 590.518-321.14 807.775zM1034.781-179.058v593.324c-135.378-3.787-267.995-24.768-395.668-62.366 91.01-200.864 224.875-381.992 395.668-530.958zm622.413 1129.583h-533.318V503.36c147.317-3.92 291.695-26.906 430.414-68.692 62.545 162.82 97.826 336.777 102.904 515.857zM1519.677 351.9c-127.672 37.598-260.378 58.535-395.801 62.366v-593.502c170.66 148.475 304.658 329.782 395.801 531.136z" fill="#2a3d45"/><path d="M2782.632 136.655a324.061 324.061 0 0 0-2.637 27.876 324.061 324.061 0 0 0 .19 32.388 324.061 324.061 0 0 0 3.428 32.212 324.061 324.061 0 0 0 6.621 31.714 324.061 324.061 0 0 0 9.756 30.879 324.061 324.061 0 0 0 .967 2.578v2.549a324.061 324.061 0 0 0 13.784 29.311 324.061 324.061 0 0 0 16.64 27.788 324.061 324.061 0 0 0 19.337 26.001 324.061 324.061 0 0 0 21.826 23.921 324.061 324.061 0 0 0 24.111 21.636 324.061 324.061 0 0 0 26.148 19.116 324.061 324.061 0 0 0 27.934 16.421 324.061 324.061 0 0 0 29.414 13.535 324.061 324.061 0 0 0 30.645 10.532 324.061 324.061 0 0 0 1.948.557 4751.197 4751.197 0 0 1 455.86 133.227 4751.197 4751.197 0 0 1 266.264 101.529v579.228l-724.673 211.787a324.061 324.061 0 0 0-30.6 10.635 324.061 324.061 0 0 0-29.385 13.623 324.061 324.061 0 0 0-27.876 16.494 324.061 324.061 0 0 0-26.104 19.204 324.061 324.061 0 0 0-24.038 21.695 324.061 324.061 0 0 0-21.753 24.009 324.061 324.061 0 0 0-19.262 26.044 324.061 324.061 0 0 0-16.553 27.833 324.061 324.061 0 0 0-13.667 29.282 324.061 324.061 0 0 0-10.81 30.542 324.061 324.061 0 0 0-7.706 31.465 324.061 324.061 0 0 0-4.526 32.065 324.061 324.061 0 0 0-1.304 32.373 324.061 324.061 0 0 0 1.934 32.33 324.061 324.061 0 0 0 5.142 31.991 324.061 324.061 0 0 0 8.32 31.304 324.061 324.061 0 0 0 11.411 30.322 324.061 324.061 0 0 0 14.37 29.019 324.061 324.061 0 0 0 1.026 1.83 4774.162 4774.162 0 0 1 230.083 418.097 4774.162 4774.162 0 0 1 119.501 265.751l-410.815 408.267a4552.168 4552.168 0 0 1-408.09-201.284 4552.168 4552.168 0 0 1-255.352-153.398 324.061 324.061 0 0 0-28.682-15.044 324.061 324.061 0 0 0-30.044-12.1 324.061 324.061 0 0 0-31.113-9.053 324.061 324.061 0 0 0-31.846-5.888 324.061 324.061 0 0 0-32.285-2.681 324.061 324.061 0 0 0-32.388.542 324.061 324.061 0 0 0-32.168 3.794 324.061 324.061 0 0 0-31.626 6.973 324.061 324.061 0 0 0-30.79 10.093 324.061 324.061 0 0 0-7.398 2.944 324.061 324.061 0 0 0-29.341 13.725 324.061 324.061 0 0 0-27.817 16.597 324.061 324.061 0 0 0-26.03 19.277 324.061 324.061 0 0 0-23.98 21.783 324.061 324.061 0 0 0-21.665 24.067 324.061 324.061 0 0 0-19.175 26.118 324.061 324.061 0 0 0-16.465 27.89 324.061 324.061 0 0 0-13.594 29.4 324.061 324.061 0 0 0-8.203 22.735l-239.853 734.868H800.449L588.662 2909.75a324.061 324.061 0 0 0-10.503-30.63 324.061 324.061 0 0 0-13.52-29.443 324.061 324.061 0 0 0-16.392-27.95 324.061 324.061 0 0 0-19.087-26.162 324.061 324.061 0 0 0-21.62-24.126 324.061 324.061 0 0 0-23.907-21.855 324.061 324.061 0 0 0-25.972-19.35 324.061 324.061 0 0 0-27.788-16.67 324.061 324.061 0 0 0-27.48-13.052 324.061 324.061 0 0 0-30.44-11.074 324.061 324.061 0 0 0-31.391-7.984 324.061 324.061 0 0 0-32.037-4.805 324.061 324.061 0 0 0-32.358-1.582 324.061 324.061 0 0 0-32.344 1.656 324.061 324.061 0 0 0-32.021 4.863 324.061 324.061 0 0 0-31.377 8.057A324.061 324.061 0 0 0 150 2700.776a324.061 324.061 0 0 0-29.15 14.122 324.061 324.061 0 0 0-1.685.937A4702.716 4702.716 0 0 1 60 2747.915V1750.84a1275.832 1275.832 0 0 0 2.388 3.647 1275.832 1275.832 0 0 0 80.112 99.229 1275.832 1275.832 0 0 0 89.62 90.732 1275.832 1275.832 0 0 0 98.217 81.343A1275.832 1275.832 0 0 0 436.2 2096.91a1275.832 1275.832 0 0 0 112.427 60.19 1275.832 1275.832 0 0 0 117.876 48.677 1275.832 1275.832 0 0 0 122.153 36.665 1275.832 1275.832 0 0 0 125.186 24.288 1275.832 1275.832 0 0 0 127.002 11.66 1275.832 1275.832 0 0 0 127.529-1.07 1275.832 1275.832 0 0 0 126.782-13.798 1275.832 1275.832 0 0 0 124.761-26.382 1275.832 1275.832 0 0 0 121.523-38.716 1275.832 1275.832 0 0 0 117.041-50.654 1275.832 1275.832 0 0 0 111.387-62.08 1275.832 1275.832 0 0 0 104.649-72.891 1275.832 1275.832 0 0 0 96.855-82.969 1275.832 1275.832 0 0 0 88.081-92.226 1275.832 1275.832 0 0 0 78.428-100.562 1275.832 1275.832 0 0 0 67.998-107.886 1275.832 1275.832 0 0 0 56.894-114.14 1275.832 1275.832 0 0 0 45.205-119.253 1275.832 1275.832 0 0 0 33.077-123.164 1275.832 1275.832 0 0 0 20.625-125.845 1275.832 1275.832 0 0 0 7.954-127.28 1275.832 1275.832 0 0 0 .087-15.806 1275.832 1275.832 0 0 0-6.108-127.383 1275.832 1275.832 0 0 0-18.809-126.137 1275.832 1275.832 0 0 0-31.289-123.633 1275.832 1275.832 0 0 0-43.49-119.883 1275.832 1275.832 0 0 0-55.24-114.946 1275.832 1275.832 0 0 0-66.43-108.868 1275.832 1275.832 0 0 0-76.978-101.674 1275.832 1275.832 0 0 0-42.041-45.308z" fill="#fff"/><path d="M1830 5940l-752.007-.996c-341.575-1.573-703.994-.102-1016.821-.19v-509.459h.322C60.534 5344.202 60 5242.03 60 5122.998v-522.993h670.005v237.993l-42.012 25.005c-149 87-211.994 250.995-158.994 409.995 29 86 83.003 147.009 168.003 189.009 57 28 77.002 32.988 142.002 32.988 174 0 300.995-101 334.995-266 30-147-33.001-288.997-161-360.997l-52.999-30v-387.994l-26.997-30c-17-19-43.998-35.004-67.998-40.004-22-5-193.01-8.994-380.01-8.994s-359.002-1.01-382.002-1.01H60v-1622.08a4702.716 4702.716 0 0 0 59.165-32.081 324.061 324.061 0 0 1 1.685-.937 324.061 324.061 0 0 1 29.15-14.122 324.061 324.061 0 0 1 30.425-11.132 324.061 324.061 0 0 1 31.377-8.057 324.061 324.061 0 0 1 32.021-4.863 324.061 324.061 0 0 1 32.344-1.656 324.061 324.061 0 0 1 32.358 1.582 324.061 324.061 0 0 1 32.037 4.805 324.061 324.061 0 0 1 31.391 7.984 324.061 324.061 0 0 1 30.44 11.074 324.061 324.061 0 0 1 27.48 13.051 324.061 324.061 0 0 1 27.788 16.67 324.061 324.061 0 0 1 25.972 19.351 324.061 324.061 0 0 1 23.906 21.855 324.061 324.061 0 0 1 21.621 24.126 324.061 324.061 0 0 1 19.087 26.163 324.061 324.061 0 0 1 16.392 27.949 324.061 324.061 0 0 1 13.52 29.443 324.061 324.061 0 0 1 10.503 30.63l211.787 727.222h579.229l239.853-734.868a324.061 324.061 0 0 1 8.203-22.735 324.061 324.061 0 0 1 13.594-29.4 324.061 324.061 0 0 1 16.465-27.89 324.061 324.061 0 0 1 19.175-26.118 324.061 324.061 0 0 1 21.665-24.067 324.061 324.061 0 0 1 23.98-21.783 324.061 324.061 0 0 1 26.03-19.277 324.061 324.061 0 0 1 27.817-16.597 324.061 324.061 0 0 1 29.34-13.725 324.061 324.061 0 0 1 7.398-2.945 324.061 324.061 0 0 1 30.791-10.092 324.061 324.061 0 0 1 31.626-6.973 324.061 324.061 0 0 1 32.168-3.794 324.061 324.061 0 0 1 32.388-.542 324.061 324.061 0 0 1 32.285 2.68 324.061 324.061 0 0 1 31.846 5.889 324.061 324.061 0 0 1 31.113 9.053 324.061 324.061 0 0 1 30.044 12.1 324.061 324.061 0 0 1 28.682 15.043 4552.168 4552.168 0 0 0 255.351 153.399 4552.168 4552.168 0 0 0 408.09 201.284l410.816-408.267a4774.162 4774.162 0 0 0-119.502-265.752 4774.162 4774.162 0 0 0-230.083-418.095 324.061 324.061 0 0 1-1.025-1.831 324.061 324.061 0 0 1-14.37-29.019 324.061 324.061 0 0 1-11.411-30.322 324.061 324.061 0 0 1-8.32-31.304 324.061 324.061 0 0 1-5.142-31.992 324.061 324.061 0 0 1-1.934-32.33 324.061 324.061 0 0 1 1.304-32.372 324.061 324.061 0 0 1 4.526-32.066 324.061 324.061 0 0 1 7.705-31.464 324.061 324.061 0 0 1 10.811-30.542 324.061 324.061 0 0 1 13.667-29.283 324.061 324.061 0 0 1 16.553-27.832 324.061 324.061 0 0 1 19.262-26.045 324.061 324.061 0 0 1 21.753-24.008 324.061 324.061 0 0 1 24.038-21.695 324.061 324.061 0 0 1 26.104-19.204 324.061 324.061 0 0 1 27.876-16.494 324.061 324.061 0 0 1 29.385-13.623 324.061 324.061 0 0 1 30.6-10.635l724.673-211.787V720.425a4751.197 4751.197 0 0 0-266.265-101.529 4751.197 4751.197 0 0 0-455.859-133.227 324.061 324.061 0 0 1-1.948-.557 324.061 324.061 0 0 1-30.645-10.532 324.061 324.061 0 0 1-29.414-13.535 324.061 324.061 0 0 1-27.934-16.421 324.061 324.061 0 0 1-26.148-19.116 324.061 324.061 0 0 1-24.111-21.636 324.061 324.061 0 0 1-21.826-23.92 324.061 324.061 0 0 1-19.336-26.002 324.061 324.061 0 0 1-16.64-27.788 324.061 324.061 0 0 1-13.785-29.311v-2.55a324.061 324.061 0 0 1-.967-2.577 324.061 324.061 0 0 1-9.756-30.88 324.061 324.061 0 0 1-6.62-31.713 324.061 324.061 0 0 1-3.428-32.212 324.061 324.061 0 0 1-.191-32.388 324.061 324.061 0 0 1 2.637-27.876l3089.721 3.34c6.273 1000.863 7.618 1636.241 7.647 2352.012v2107.998H4309.995v-238.008l44.004-26c190-111 229.994-360.998 83.994-521.998-80-86-199.995-128.004-304.995-104.004-153 33-240.003 120.007-273.003 272.007-30 131 41.003 280.005 168.003 355.005l41.997 24.99v176.001c0 195 7.003 225.001 63.003 266.001 30 22 25 22.001 1635 26.001h101.997v210h-106.992c-115 1-2302 1-2490 0-89 0-112.998-3.004-112.998-14.004 0-24-73-112.99-120-144.99-25-17-74.01-38.007-110.01-47.007-55-14-73.995-14.995-124.995-4.995-163 33-253.996 120.998-285.996 277.998-11 52-10.001 69.994 3.999 128.994 32 126 115.996 214.005 240.996 250.005 142 40 304.002-28.997 382.002-161.997l26-44.004h2700l-2.006 660H2070v-910.005l38.994-18.999c161-83 222.005-269.002 145.005-442.002-51-113-152.004-178.987-284.004-186.987-87-5-162.998 17.997-232.998 71.997-87 66-139.993 205.993-117.993 312.993 22 109 84.991 199.003 170.991 243.003l40.005 19.995v455.01z" fill="#588c2e"/><path d="M771 5244c-85-71-16-210 93-190 52 10 81 48 81 108 0 43-4 53-33 79-43 38-98 40-141 3zm2031 11c-39-17-65-69-56-114 13-65 93-107 150-79 86 42 88 167 2 197-40 14-56 13-96-4zm-888-445c-58-23-73-116-28-169 73-87 219-12 184 95-22 67-92 100-156 74zm2236-668c-49-24-76-80-60-126 39-120 212-97 212 29 0 46-25 83-67 101-43 18-43 18-85-4z" fill="#2a3d45"/></g></svg>