<?xml version="1.0" encoding="UTF-8" standalone="no"?>
<!-- Created with Inkscape (http://www.inkscape.org/) -->

<svg
   xmlns:dc="http://purl.org/dc/elements/1.1/"
   xmlns:cc="http://creativecommons.org/ns#"
   xmlns:rdf="http://www.w3.org/1999/02/22-rdf-syntax-ns#"
   xmlns:svg="http://www.w3.org/2000/svg"
   xmlns="http://www.w3.org/2000/svg"
   xmlns:sodipodi="http://sodipodi.sourceforge.net/DTD/sodipodi-0.dtd"
   xmlns:inkscape="http://www.inkscape.org/namespaces/inkscape"
   width="142.7877"
   height="142.48393"
   viewBox="0 0 37.779242 37.698872"
   version="1.1"
   id="svg8"
   inkscape:version="0.92.3 (2405546, 2018-03-11)"
   sodipodi:docname="itbsr-small.svg"
   inkscape:export-filename="D:\Users\joerg\Projekte\docker\team-development-server\theming\img\itbsr-small.png"
   inkscape:export-xdpi="28.24"
   inkscape:export-ydpi="28.24">
  <defs
     id="defs2">
    <clipPath
       clipPathUnits="userSpaceOnUse"
       id="clipPath4328">
      <rect
         style="fill:#ffffff;stroke-width:7.5"
         id="rect4330"
         width="5811.1816"
         height="5798.8184"
         x="61.171875"
         y="-5938.8135"
         transform="scale(1,-1)" />
    </clipPath>
  </defs>
  <sodipodi:namedview
     id="base"
     pagecolor="#ffffff"
     bordercolor="#666666"
     borderopacity="1.0"
     inkscape:pageopacity="0.0"
     inkscape:pageshadow="2"
     inkscape:zoom="1.4"
     inkscape:cx="23.846601"
     inkscape:cy="-81.893392"
     inkscape:document-units="mm"
     inkscape:current-layer="layer1"
     showgrid="false"
     inkscape:window-width="1920"
     inkscape:window-height="1017"
     inkscape:window-x="-8"
     inkscape:window-y="-8"
     inkscape:window-maximized="1"
     fit-margin-top="0"
     fit-margin-left="0"
     fit-margin-right="0"
     fit-margin-bottom="0"
     units="px" />
  <metadata
     id="metadata5">
    <rdf:RDF>
      <cc:Work
         rdf:about="">
        <dc:format>image/svg+xml</dc:format>
        <dc:type
           rdf:resource="http://purl.org/dc/dcmitype/StillImage" />
        <dc:title />
      </cc:Work>
    </rdf:RDF>
  </metadata>
  <g
     inkscape:label="Ebene 1"
     inkscape:groupmode="layer"
     id="layer1"
     transform="translate(-7.0257454,-4.7611135)">
    <flowRoot
       xml:space="preserve"
       id="flowRoot3701"
       style="font-style:normal;font-weight:normal;font-size:40px;line-height:125%;font-family:sans-serif;letter-spacing:0px;word-spacing:0px;fill:#000000;fill-opacity:1;stroke:none;stroke-width:1px;stroke-linecap:butt;stroke-linejoin:miter;stroke-opacity:1"><flowRegion
         id="flowRegion3703"><rect
           id="rect3705"
           width="418.04745"
           height="376.9426"
           x="377.95276"
           y="744.56696" /></flowRegion><flowPara
         id="flowPara3707" /></flowRoot>    <g
       transform="matrix(-0.00650113,0,0,-0.00650113,45.202679,43.370112)"
       id="g4324"
       clip-path="url(#clipPath4328)">
      <g
         style="fill:#000000"
         transform="matrix(44.547171,0,0,-44.547171,-211.42573,2286.2715)"
         id="g4162">
        <path
           style="fill:#2a3d45;fill-opacity:1"
           inkscape:connector-curvature="0"
           id="path4130"
           d="m 29.975,27.985 h 11.972 c -0.123,-4.348 -1.033,-8.567 -2.664,-12.477 -3.01,0.874 -6.131,1.355 -9.308,1.44 z" />
        <path
           style="fill:#2a3d45;fill-opacity:1"
           inkscape:connector-curvature="0"
           id="path4132"
           d="m 40.384,13.057 c 2.928,-1.01 5.731,-2.392 8.328,-4.169 l 0.653,-0.5 C 44.588,3.658 38.18,0.58 31.071,0.069 L 30.553,0.49 c 4.214,3.489 7.546,7.778 9.831,12.567 z" />
        <path
           style="fill:#2a3d45;fill-opacity:1"
           inkscape:connector-curvature="0"
           id="path4134"
           d="m 29.975,2.628 v 12.32 c 2.891,-0.082 5.731,-0.513 8.473,-1.283 C 36.421,9.505 33.557,5.753 29.975,2.628 Z" />
        <path
           style="fill:#2a3d45;fill-opacity:1"
           inkscape:connector-curvature="0"
           id="path4136"
           d="m 41.531,42.202 c 3.13,1.132 6.12,2.668 8.885,4.639 l 0.868,0.65 C 55.26,42.706 57.723,36.625 57.949,29.986 H 43.947 c -0.113,4.238 -0.941,8.357 -2.416,12.216 z" />
        <path
           style="fill:#2a3d45;fill-opacity:1"
           inkscape:connector-curvature="0"
           id="path4138"
           d="m 9.237,8.888 c 2.597,1.777 5.401,3.158 8.328,4.169 C 19.85,8.269 23.182,3.98 27.397,0.49 L 26.879,0.069 C 19.754,0.581 13.332,3.672 8.551,8.419 Z" />
        <path
           style="fill:#2a3d45;fill-opacity:1"
           inkscape:connector-curvature="0"
           id="path4140"
           d="m 27.975,2.628 c -3.583,3.125 -6.446,6.878 -8.473,11.036 2.742,0.77 5.582,1.202 8.473,1.283 z" />
        <path
           style="fill:#2a3d45;fill-opacity:1"
           inkscape:connector-curvature="0"
           id="path4142"
           d="M 14.003,29.985 H 0 c 0.227,6.639 2.689,12.719 6.665,17.505 l 0.85,-0.635 c 2.775,-1.977 5.771,-3.518 8.906,-4.652 -1.478,-3.862 -2.305,-7.981 -2.418,-12.218 z" />
        <path
           style="fill:#2a3d45;fill-opacity:1"
           inkscape:connector-curvature="0"
           id="path4144"
           d="M 16.752,14.89 C 13.715,13.826 10.807,12.385 8.108,10.539 L 7.17,9.897 C 2.901,14.768 0.236,21.072 0,27.985 h 14.003 c 0.121,-4.56 1.058,-8.988 2.749,-13.095 z" />
        <path
           style="fill:#2a3d45;fill-opacity:1"
           inkscape:connector-curvature="0"
           id="path4146"
           d="M 16.003,27.985 H 27.975 V 16.948 c -3.179,-0.085 -6.301,-0.566 -9.309,-1.438 -1.631,3.909 -2.541,8.127 -2.663,12.475 z" />
        <path
           style="fill:#2a3d45;fill-opacity:1"
           inkscape:connector-curvature="0"
           id="path4148"
           d="M 27.297,57.391 C 22.878,53.696 19.456,49.132 17.186,44.05 c -2.992,1.074 -5.851,2.538 -8.492,4.42 l -0.689,0.515 c 4.774,5.003 11.31,8.304 18.605,8.896 z" />
        <path
           style="fill:#2a3d45;fill-opacity:1"
           inkscape:connector-curvature="0"
           id="path4150"
           d="M 27.975,40.023 V 29.985 H 16.003 c 0.113,4.019 0.905,7.924 2.313,11.58 3.113,-0.938 6.353,-1.454 9.659,-1.542 z" />
        <path
           style="fill:#2a3d45;fill-opacity:1"
           inkscape:connector-curvature="0"
           id="path4152"
           d="m 49.236,48.456 c -2.631,-1.875 -5.482,-3.335 -8.469,-4.406 -2.272,5.094 -5.698,9.662 -10.113,13.344 l 0.685,0.487 c 7.295,-0.592 13.832,-3.892 18.606,-8.895 z" />
        <path
           style="fill:#2a3d45;fill-opacity:1"
           inkscape:connector-curvature="0"
           id="path4154"
           d="m 49.885,10.507 c -2.72,1.862 -5.643,3.311 -8.689,4.38 1.692,4.108 2.629,8.537 2.751,13.098 H 57.95 C 57.713,21.05 55.033,14.729 50.741,9.852 Z" />
        <path
           style="fill:#2a3d45;fill-opacity:1"
           inkscape:connector-curvature="0"
           id="path4156"
           d="M 27.975,55.342 V 42.023 c -3.039,0.085 -6.016,0.556 -8.882,1.4 2.043,4.509 5.048,8.575 8.882,11.919 z" />
        <path
           style="fill:#2a3d45;fill-opacity:1"
           inkscape:connector-curvature="0"
           id="path4158"
           d="M 41.947,29.985 H 29.975 v 10.038 c 3.307,0.088 6.548,0.604 9.662,1.542 1.404,-3.655 2.196,-7.56 2.31,-11.58 z" />
        <path
           style="fill:#2a3d45;fill-opacity:1"
           inkscape:connector-curvature="0"
           id="path4160"
           d="m 38.86,43.423 c -2.866,-0.844 -5.845,-1.314 -8.885,-1.4 v 13.323 c 3.831,-3.333 6.839,-7.403 8.885,-11.923 z" />
      </g>
      <path
         inkscape:connector-curvature="0"
         transform="matrix(7.4999999,0,0,-7.4999999,0,5940)"
         id="path4012-3"
         d="m 371.01758,773.7793 a 43.208167,43.208167 0 0 1 -0.35156,-3.7168 43.208167,43.208167 0 0 1 0.0254,-4.31836 43.208167,43.208167 0 0 1 0.45703,-4.29492 43.208167,43.208167 0 0 1 0.88281,-4.22852 43.208167,43.208167 0 0 1 1.30078,-4.11718 43.208167,43.208167 0 0 1 0.12891,-0.34375 v -0.33985 a 43.208167,43.208167 0 0 1 1.83789,-3.9082 43.208167,43.208167 0 0 1 2.21875,-3.70508 43.208167,43.208167 0 0 1 2.57812,-3.4668 43.208167,43.208167 0 0 1 2.91016,-3.18945 43.208167,43.208167 0 0 1 3.21484,-2.88477 43.208167,43.208167 0 0 1 3.48633,-2.54882 43.208167,43.208167 0 0 1 3.72461,-2.18946 43.208167,43.208167 0 0 1 3.92188,-1.80468 43.208167,43.208167 0 0 1 4.08593,-1.4043 43.208167,43.208167 0 0 1 0.25977,-0.0742 633.49297,633.49297 0 0 0 60.78125,-17.76367 633.49297,633.49297 0 0 0 35.50195,-13.53711 v -77.23047 l -96.62304,-28.23828 a 43.208167,43.208167 0 0 1 -4.08008,-1.41797 43.208167,43.208167 0 0 1 -3.91797,-1.81641 43.208167,43.208167 0 0 1 -3.7168,-2.19921 43.208167,43.208167 0 0 1 -3.48047,-2.56055 43.208167,43.208167 0 0 1 -3.20508,-2.89258 43.208167,43.208167 0 0 1 -2.90039,-3.20117 43.208167,43.208167 0 0 1 -2.56836,-3.47266 43.208167,43.208167 0 0 1 -2.20703,-3.71094 43.208167,43.208167 0 0 1 -1.82226,-3.90429 43.208167,43.208167 0 0 1 -1.44141,-4.07227 43.208167,43.208167 0 0 1 -1.02734,-4.19531 43.208167,43.208167 0 0 1 -0.60352,-4.27539 43.208167,43.208167 0 0 1 -0.17383,-4.31641 43.208167,43.208167 0 0 1 0.25782,-4.31054 43.208167,43.208167 0 0 1 0.68554,-4.26563 43.208167,43.208167 0 0 1 1.10938,-4.17383 43.208167,43.208167 0 0 1 1.52148,-4.04297 43.208167,43.208167 0 0 1 1.91602,-3.86914 43.208167,43.208167 0 0 1 0.13672,-0.24414 636.55497,636.55497 0 0 0 30.67773,-55.74609 636.55497,636.55497 0 0 0 15.93359,-35.43359 l -54.77539,-54.43555 a 606.95568,606.95568 0 0 0 -54.41211,26.83789 606.95568,606.95568 0 0 0 -34.04687,20.45312 43.208167,43.208167 0 0 1 -3.82422,2.00586 43.208167,43.208167 0 0 1 -4.00586,1.61328 43.208167,43.208167 0 0 1 -4.14844,1.20704 43.208167,43.208167 0 0 1 -4.24609,0.78515 43.208167,43.208167 0 0 1 -4.30469,0.35742 43.208167,43.208167 0 0 1 -4.31836,-0.0723 43.208167,43.208167 0 0 1 -4.28906,-0.50586 43.208167,43.208167 0 0 1 -4.2168,-0.92969 43.208167,43.208167 0 0 1 -4.10546,-1.3457 43.208167,43.208167 0 0 1 -0.98633,-0.39258 43.208167,43.208167 0 0 1 -3.91211,-1.83008 43.208167,43.208167 0 0 1 -3.70899,-2.21289 43.208167,43.208167 0 0 1 -3.4707,-2.57031 43.208167,43.208167 0 0 1 -3.19726,-2.9043 43.208167,43.208167 0 0 1 -2.88868,-3.20898 43.208167,43.208167 0 0 1 -2.55664,-3.48242 43.208167,43.208167 0 0 1 -2.19531,-3.71875 43.208167,43.208167 0 0 1 -1.8125,-3.91993 43.208167,43.208167 0 0 1 -1.09375,-3.03125 l -31.98048,-97.9824 H 106.72656 L 78.488281,404.0332 a 43.208167,43.208167 0 0 1 -1.40039,4.08399 43.208167,43.208167 0 0 1 -1.802735,3.92578 43.208167,43.208167 0 0 1 -2.185547,3.72656 43.208167,43.208167 0 0 1 -2.544921,3.48828 43.208167,43.208167 0 0 1 -2.882813,3.2168 43.208167,43.208167 0 0 1 -3.1875,2.91406 43.208167,43.208167 0 0 1 -3.462891,2.58008 43.208167,43.208167 0 0 1 -3.705078,2.22266 43.208167,43.208167 0 0 1 -3.664062,1.74023 43.208167,43.208167 0 0 1 -4.058594,1.47656 43.208167,43.208167 0 0 1 -4.185547,1.06446 43.208167,43.208167 0 0 1 -4.271484,0.64062 43.208167,43.208167 0 0 1 -4.314453,0.21094 43.208167,43.208167 0 0 1 -4.3125,-0.2207 43.208167,43.208167 0 0 1 -4.269532,-0.64844 43.208167,43.208167 0 0 1 -4.183593,-1.07422 A 43.208167,43.208167 0 0 1 20,431.89648 43.208167,43.208167 0 0 1 16.113281,430.01367 43.208167,43.208167 0 0 1 15.888672,429.88867 627.02876,627.02876 0 0 0 8,425.61133 V 558.55469 A 170.1109,170.1109 0 0 1 8.3183594,558.06836 170.1109,170.1109 0 0 1 19,544.83789 a 170.1109,170.1109 0 0 1 11.949219,-12.09766 170.1109,170.1109 0 0 1 13.095703,-10.8457 170.1109,170.1109 0 0 1 14.115234,-9.48242 170.1109,170.1109 0 0 1 14.990235,-8.02539 170.1109,170.1109 0 0 1 15.716797,-6.49024 170.1109,170.1109 0 0 1 16.287112,-4.88867 170.1109,170.1109 0 0 1 16.6914,-3.23828 170.1109,170.1109 0 0 1 16.9336,-1.55469 170.1109,170.1109 0 0 1 17.0039,0.14258 170.1109,170.1109 0 0 1 16.9043,1.83985 170.1109,170.1109 0 0 1 16.63477,3.51757 170.1109,170.1109 0 0 1 16.20312,5.16211 170.1109,170.1109 0 0 1 15.60547,6.75391 170.1109,170.1109 0 0 1 14.85156,8.27734 170.1109,170.1109 0 0 1 13.95313,9.71875 170.1109,170.1109 0 0 1 12.91406,11.0625 170.1109,170.1109 0 0 1 11.74414,12.29688 170.1109,170.1109 0 0 1 10.45703,13.4082 170.1109,170.1109 0 0 1 9.06641,14.38477 170.1109,170.1109 0 0 1 7.58593,15.21875 170.1109,170.1109 0 0 1 6.02735,15.90039 170.1109,170.1109 0 0 1 4.41015,16.42187 170.1109,170.1109 0 0 1 2.75,16.7793 170.1109,170.1109 0 0 1 1.06055,16.9707 170.1109,170.1109 0 0 1 0.0117,2.10742 170.1109,170.1109 0 0 1 -0.81445,16.98438 170.1109,170.1109 0 0 1 -2.50782,16.81836 170.1109,170.1109 0 0 1 -4.17187,16.48437 170.1109,170.1109 0 0 1 -5.79883,15.98438 170.1109,170.1109 0 0 1 -7.36523,15.32617 170.1109,170.1109 0 0 1 -8.85742,14.51563 170.1109,170.1109 0 0 1 -10.26368,13.55664 170.1109,170.1109 0 0 1 -5.60547,6.04101 z"
         style="fill:#ffffff;stroke-width:0.13333334" />
      <path
         inkscape:connector-curvature="0"
         transform="matrix(7.4999999,0,0,-7.4999999,0,5940)"
         id="path3779-3"
         d="M 244,0 143.73242,0.1328125 C 98.189094,0.34256693 49.866532,0.14642952 8.15625,0.15820312 V 68.085938 H 8.199219 C 8.0712791,79.439758 8,93.062747 8,108.93359 v 69.73243 h 44.666016 44.667968 v -15.86524 -15.86719 l -5.601562,-3.33398 C 71.865755,131.99961 63.466536,110.13359 70.533203,88.933594 74.39987,77.466927 81.60026,69.332422 92.933594,63.732422 c 7.599996,-3.733334 10.266926,-4.398438 18.933596,-4.398438 23.2,0 40.13268,13.466797 44.66601,35.466797 4,19.599999 -4.40013,38.532809 -21.46679,48.132809 l -7.06641,4 v 25.86719 25.86524 l -3.59961,4 c -2.26667,2.53333 -5.86641,4.66731 -9.06641,5.33398 -2.93333,0.66667 -25.734631,1.19922 -50.667964,1.19922 -24.933334,0 -47.866927,0.13476 -50.933594,0.13476 H 8 v 216.27735 a 627.02876,627.02876 0 0 1 7.888672,4.27734 43.208167,43.208167 0 0 0 0.224609,0.125 43.208167,43.208167 0 0 0 3.886719,1.88281 43.208167,43.208167 0 0 0 4.056641,1.48438 43.208167,43.208167 0 0 0 4.183593,1.07422 43.208167,43.208167 0 0 0 4.269532,0.64844 43.208167,43.208167 0 0 0 4.3125,0.2207 43.208167,43.208167 0 0 0 4.314453,-0.21094 43.208167,43.208167 0 0 0 4.271484,-0.64062 43.208167,43.208167 0 0 0 4.185547,-1.06446 43.208167,43.208167 0 0 0 4.058594,-1.47656 43.208167,43.208167 0 0 0 3.664062,-1.74023 43.208167,43.208167 0 0 0 3.705078,-2.22266 43.208167,43.208167 0 0 0 3.462891,-2.58008 43.208167,43.208167 0 0 0 3.1875,-2.91406 43.208167,43.208167 0 0 0 2.882813,-3.2168 43.208167,43.208167 0 0 0 2.544921,-3.48828 43.208167,43.208167 0 0 0 2.185547,-3.72656 43.208167,43.208167 0 0 0 1.802735,-3.92578 43.208167,43.208167 0 0 0 1.40039,-4.08399 l 28.238279,-96.96289 h 77.23047 l 31.98047,97.98242 a 43.208167,43.208167 0 0 0 1.09375,3.03125 43.208167,43.208167 0 0 0 1.8125,3.91993 43.208167,43.208167 0 0 0 2.19531,3.71875 43.208167,43.208167 0 0 0 2.55664,3.48242 43.208167,43.208167 0 0 0 2.88868,3.20898 43.208167,43.208167 0 0 0 3.19726,2.9043 43.208167,43.208167 0 0 0 3.4707,2.57031 43.208167,43.208167 0 0 0 3.70899,2.21289 43.208167,43.208167 0 0 0 3.91211,1.83008 43.208167,43.208167 0 0 0 0.98633,0.39258 43.208167,43.208167 0 0 0 4.10546,1.3457 43.208167,43.208167 0 0 0 4.2168,0.92969 43.208167,43.208167 0 0 0 4.28906,0.50586 43.208167,43.208167 0 0 0 4.31836,0.0723 43.208167,43.208167 0 0 0 4.30469,-0.35742 43.208167,43.208167 0 0 0 4.24609,-0.78515 43.208167,43.208167 0 0 0 4.14844,-1.20704 43.208167,43.208167 0 0 0 4.00586,-1.61328 43.208167,43.208167 0 0 0 3.82422,-2.00586 606.95568,606.95568 0 0 1 34.04687,-20.45312 606.95568,606.95568 0 0 1 54.41211,-26.83789 l 54.77539,54.43555 a 636.55497,636.55497 0 0 1 -15.93359,35.43359 636.55497,636.55497 0 0 1 -30.67773,55.74609 43.208167,43.208167 0 0 0 -0.13672,0.24414 43.208167,43.208167 0 0 0 -1.91602,3.86914 43.208167,43.208167 0 0 0 -1.52148,4.04297 43.208167,43.208167 0 0 0 -1.10938,4.17383 43.208167,43.208167 0 0 0 -0.68554,4.26563 43.208167,43.208167 0 0 0 -0.25782,4.31054 43.208167,43.208167 0 0 0 0.17383,4.31641 43.208167,43.208167 0 0 0 0.60352,4.27539 43.208167,43.208167 0 0 0 1.02734,4.19531 43.208167,43.208167 0 0 0 1.44141,4.07227 43.208167,43.208167 0 0 0 1.82226,3.90429 43.208167,43.208167 0 0 0 2.20703,3.71094 43.208167,43.208167 0 0 0 2.56836,3.47266 43.208167,43.208167 0 0 0 2.90039,3.20117 43.208167,43.208167 0 0 0 3.20508,2.89258 43.208167,43.208167 0 0 0 3.48047,2.56055 43.208167,43.208167 0 0 0 3.7168,2.19921 43.208167,43.208167 0 0 0 3.91797,1.81641 43.208167,43.208167 0 0 0 4.08008,1.41797 l 96.62304,28.23828 v 77.23047 a 633.49297,633.49297 0 0 1 -35.50195,13.53711 633.49297,633.49297 0 0 1 -60.78125,17.76367 43.208167,43.208167 0 0 0 -0.25977,0.0742 43.208167,43.208167 0 0 0 -4.08593,1.4043 43.208167,43.208167 0 0 0 -3.92188,1.80468 43.208167,43.208167 0 0 0 -3.72461,2.18946 43.208167,43.208167 0 0 0 -3.48633,2.54882 43.208167,43.208167 0 0 0 -3.21484,2.88477 43.208167,43.208167 0 0 0 -2.91016,3.18945 43.208167,43.208167 0 0 0 -2.57812,3.4668 43.208167,43.208167 0 0 0 -2.21875,3.70508 43.208167,43.208167 0 0 0 -1.83789,3.9082 v 0.33985 a 43.208167,43.208167 0 0 0 -0.12891,0.34375 43.208167,43.208167 0 0 0 -1.30078,4.11718 43.208167,43.208167 0 0 0 -0.88281,4.22852 43.208167,43.208167 0 0 0 -0.45703,4.29492 43.208167,43.208167 0 0 0 -0.0254,4.31836 43.208167,43.208167 0 0 0 0.35156,3.7168 L 782.98046,773.334 C 783.81687,639.88563 783.9962,555.16853 784,459.73242 V 178.66602 H 679.33398 574.66602 v 15.86718 15.86719 l 5.86718,3.4668 c 25.33334,14.8 30.66589,48.13294 11.19922,69.59961 -10.66666,11.46666 -26.66601,17.06718 -40.66601,13.86718 -20.4,-4.4 -32.00039,-16.00091 -36.40039,-36.26757 -4,-17.46667 5.46705,-37.33399 22.40039,-47.33399 l 5.59961,-3.33203 v -23.4668 c 0,-26 0.93372,-30.00013 8.40039,-35.46679 4,-2.93334 3.33333,-2.93347 218,-3.4668 h 13.59961 v -14 -14 h -14.26563 c -15.33333,-0.13333 -306.93333,-0.13333 -332,0 -11.86667,0 -15.06641,0.40052 -15.06641,1.86719 0,3.2 -9.73333,15.06536 -16,19.33203 -3.33333,2.26667 -9.86796,5.06758 -14.66796,6.26758 -7.33334,1.86666 -9.86602,1.99935 -16.66602,0.66601 -21.73333,-4.4 -33.86615,-16.13307 -38.13281,-37.0664 -1.46667,-6.93334 -1.33347,-9.33256 0.5332,-17.199222 4.26667,-16.800001 15.46615,-28.533985 32.13281,-33.333985 18.93334,-5.333333 40.5336,3.86628 50.9336,21.599609 L 422.93359,88 h 180 180 L 782.66602,0 H 276 v 60.666016 60.667964 l 5.19922,2.53321 c 21.46667,11.06666 29.60065,35.86692 19.33398,58.93359 -6.8,15.06667 -20.26718,23.86498 -37.86718,24.93164 -11.6,0.66667 -21.73308,-2.39961 -31.06641,-9.59961 -11.6,-8.8 -18.66576,-27.46575 -15.73242,-41.73242 C 218.80052,141.86706 227.19935,129.86667 238.66602,124 L 244,121.33398 V 60.666016 Z"
         style="fill:#588c2e;fill-opacity:1;stroke-width:0.13333334" />
      <path
         inkscape:connector-curvature="0"
         d="m 771,5244 c -85,-71 -16,-210 93,-190 52,10 81,48 81,108 0,43 -4,53 -33,79 -43,38 -98,40 -141,3 z"
         id="path3789-2"
         style="fill:#2a3d45;fill-opacity:1" />
      <path
         inkscape:connector-curvature="0"
         d="m 2802,5255 c -39,-17 -65,-69 -56,-114 13,-65 93,-107 150,-79 86,42 88,167 2,197 -40,14 -56,13 -96,-4 z"
         id="path3791-9"
         style="fill:#2a3d45;fill-opacity:1" />
      <path
         inkscape:connector-curvature="0"
         d="m 1914,4810 c -58,-23 -73,-116 -28,-169 73,-87 219,-12 184,95 -22,67 -92,100 -156,74 z"
         id="path3793-1"
         style="fill:#2a3d45;fill-opacity:1" />
      <path
         inkscape:connector-curvature="0"
         d="m 4150,4142 c -49,-24 -76,-80 -60,-126 39,-120 212,-97 212,29 0,46 -25,83 -67,101 -43,18 -43,18 -85,-4 z"
         id="path3795-9"
         style="fill:#2a3d45;fill-opacity:1" />
    </g>
  </g>
</svg>
